<?xml version="1.0" standalone="no"?>
<!DOCTYPE svg PUBLIC "-//W3C//DTD SVG 20010904//EN"
 "http://www.w3.org/TR/2001/REC-SVG-20010904/DTD/svg10.dtd">
<svg version="1.0" xmlns="http://www.w3.org/2000/svg"
 width="175.000000pt" height="138.000000pt" viewBox="0 0 175.000000 138.000000"
 preserveAspectRatio="xMidYMid meet">
<metadata>
Created by potrace 1.10, written by Peter Selinger 2001-2011
</metadata>
<g transform="translate(0.000000,138.000000) scale(0.100000,-0.100000)"
fill="#00000" stroke="none">
<path d="M368 1339 c-25 -14 -22 -47 8 -90 25 -36 25 -40 14 -96 -17 -80 -57
-206 -88 -277 -25 -57 -25 -59 -7 -72 10 -8 26 -14 35 -14 19 0 50 30 50 48 0
11 89 254 95 261 6 5 77 -141 89 -184 14 -48 53 -73 86 -55 11 6 20 20 20 32
0 42 33 155 81 276 53 132 57 153 34 172 -17 14 -64 6 -69 -13 -12 -43 -100
-274 -106 -281 -5 -4 -18 13 -29 39 -12 26 -37 65 -56 86 -29 33 -35 47 -35
84 0 74 -64 118 -122 84z m70 -46 c5 -10 12 -35 15 -55 3 -21 22 -59 41 -84
38 -50 41 -63 8 -43 -26 16 -49 6 -70 -31 -26 -45 -32 -36 -16 23 18 68 18
128 -1 153 -19 25 -19 54 0 54 8 0 18 -8 23 -17z m216 -294 c-9 -41 -21 -80
-27 -87 -12 -15 -23 1 -57 89 -20 50 -20 52 -2 36 10 -9 27 -17 37 -17 23 0
55 28 55 48 0 9 2 13 5 10 3 -3 -2 -38 -11 -79z"/>
<path d="M1007 1279 c-56 -50 -68 -66 -65 -88 5 -45 33 -36 103 32 47 47 65
71 65 91 0 42 -28 32 -103 -35z"/>
<path d="M1372 1143 c-20 -14 -31 -14 -73 -5 -60 14 -100 -1 -123 -47 -21 -39
-68 -231 -62 -247 3 -8 17 -19 30 -26 36 -16 53 2 61 65 9 66 32 149 48 171
11 15 17 16 39 5 58 -26 148 18 148 72 0 24 -4 29 -22 28 -13 0 -33 -7 -46
-16z"/>
<path d="M800 1124 c-38 -11 -38 -37 0 -119 20 -44 51 -97 69 -117 31 -36 32
-38 16 -67 -25 -49 -85 -202 -85 -218 0 -26 30 -25 70 1 29 19 40 33 40 51 0
14 41 106 90 205 50 99 90 186 90 194 0 7 -7 19 -16 26 -25 22 -66 1 -76 -37
-10 -39 -47 -103 -59 -103 -13 0 -36 39 -60 105 -32 86 -37 90 -79 79z m142
-214 c8 0 19 5 26 12 24 24 22 -2 -4 -54 -25 -47 -29 -50 -32 -28 -2 14 -14
39 -26 55 -39 52 -41 60 -9 37 17 -12 37 -22 45 -22z"/>
<path d="M1097 582 c-9 -10 -22 -35 -29 -57 -12 -37 -15 -40 -47 -37 -22 3
-31 0 -27 -7 4 -6 15 -11 25 -11 29 0 30 -8 10 -71 -21 -68 -23 -79 -10 -79 4
0 16 30 26 68 10 37 25 73 33 80 9 6 11 12 4 12 -7 0 -3 18 10 50 21 50 38 65
38 33 0 -13 3 -14 11 -6 14 14 5 43 -14 43 -8 0 -21 -8 -30 -18z"/>
<path d="M656 540 c-9 -22 -16 -53 -16 -69 0 -27 2 -28 41 -25 42 3 81 24 45
24 -14 0 -16 3 -7 13 19 24 -2 28 -26 5 -29 -28 -41 -16 -24 25 21 53 24 67
13 67 -5 0 -17 -18 -26 -40z"/>
<path d="M1327 528 c-14 -45 -22 -58 -37 -58 -22 0 -27 16 -7 23 6 2 9 8 5 12
-4 4 -19 0 -33 -9 -14 -9 -30 -14 -36 -11 -5 4 -16 1 -24 -5 -12 -10 -15 -9
-15 4 0 19 -40 22 -58 4 -17 -17 -15 -48 5 -55 9 -4 29 1 44 9 20 12 29 13 32
5 3 -8 11 -6 24 6 23 20 61 13 43 -8 -18 -22 3 -25 27 -3 19 18 23 19 23 5 0
-20 21 -22 38 -5 9 9 12 9 12 0 0 -7 9 -12 20 -12 11 0 20 5 20 10 0 6 -5 10
-11 10 -6 0 -9 7 -5 15 7 20 -14 19 -42 -1 -25 -17 -27 -11 -11 34 6 17 9 43
7 59 -3 24 -6 19 -21 -29z"/>
<path d="M1596 573 c-3 -3 -6 -14 -6 -24 0 -10 -10 -19 -25 -23 -14 -4 -23
-11 -20 -16 4 -6 11 -8 16 -5 20 13 8 -25 -13 -39 -16 -11 -25 -13 -35 -4 -11
9 -10 13 4 24 17 12 17 13 -4 14 -12 0 -24 -4 -28 -10 -3 -5 -12 -7 -20 -3
-20 7 -45 -14 -45 -38 0 -23 23 -25 40 -4 14 17 40 20 40 5 0 -5 -5 -10 -12
-10 -9 0 -9 -3 -1 -11 8 -8 19 -6 41 5 19 10 33 12 37 6 10 -15 61 -12 75 5
16 19 5 34 -12 17 -12 -12 -48 -17 -48 -7 0 4 7 19 15 34 11 22 23 29 56 34
23 3 47 11 53 17 8 9 -2 10 -43 5 -47 -6 -53 -5 -48 9 6 16 -6 30 -17 19z"/>
<path d="M359 544 c-14 -27 -62 -58 -73 -47 -3 4 -6 -3 -6 -15 0 -26 12 -28
30 -7 16 19 30 19 30 0 0 -21 27 -30 45 -15 11 9 15 10 15 1 0 -7 10 -11 23
-10 12 1 30 -1 40 -6 10 -4 24 -2 32 5 22 18 25 10 11 -29 -6 -19 -24 -44 -39
-55 l-28 -21 -19 25 c-22 28 -25 24 -10 -14 9 -26 31 -32 65 -20 38 15 75 151
45 169 -5 3 -27 -3 -49 -15 -50 -25 -54 -25 -46 0 8 25 0 25 -33 -1 -23 -17
-28 -18 -30 -6 -2 9 4 29 12 46 9 16 12 32 7 35 -4 3 -14 -6 -22 -20z"/>
<path d="M70 481 c-36 -33 -62 -62 -59 -66 4 -3 15 2 25 12 49 48 61 54 85 44
17 -7 19 -10 7 -10 -10 -1 -18 -5 -18 -11 0 -14 22 -12 44 5 17 13 21 13 32
-3 11 -16 13 -16 31 1 11 9 22 17 26 17 11 0 -21 -91 -39 -111 -23 -26 -32
-24 -37 9 -4 25 -4 24 -6 -6 -2 -59 43 -53 75 11 17 31 34 123 26 132 -3 3
-16 -5 -29 -17 -25 -23 -44 -18 -23 7 16 20 1 19 -28 -1 -13 -9 -31 -13 -43
-9 -21 7 -21 7 2 31 46 49 -6 23 -71 -35z"/>
<path d="M867 485 c-10 -14 -25 -25 -34 -25 -13 0 -13 3 -3 15 15 18 0 25 -42
22 -22 -2 -28 -7 -28 -24 0 -26 15 -31 24 -8 3 8 10 15 17 15 6 0 8 -7 5 -15
-8 -21 20 -30 50 -17 29 14 29 14 8 -38 -20 -49 -48 -68 -63 -43 -5 10 -12 15
-16 12 -3 -3 3 -17 14 -30 16 -19 23 -22 38 -13 25 15 52 72 59 127 7 52 -2
59 -29 22z"/>
</g>
</svg>
