<?xml version="1.0" standalone="no"?>
<!DOCTYPE svg PUBLIC "-//W3C//DTD SVG 20010904//EN"
 "http://www.w3.org/TR/2001/REC-SVG-20010904/DTD/svg10.dtd">
<svg version="1.0" xmlns="http://www.w3.org/2000/svg"
 width="175.000000pt" height="138.000000pt" viewBox="0 0 175.000000 138.000000"
 preserveAspectRatio="xMidYMid meet">
<metadata>
Created by potrace 1.10, written by Peter Selinger 2001-2011
</metadata>
<g transform="translate(0.000000,138.000000) scale(0.100000,-0.100000)"
fill="#000000" stroke="none">
<path d="M367 1335 c-9 -9 -17 -21 -17 -26 0 -15 21 -53 34 -61 30 -19 -20
-251 -81 -375 -27 -54 -27 -55 -8 -69 28 -20 57 -14 72 16 7 14 33 81 59 150
25 69 47 126 49 128 6 6 65 -109 83 -163 24 -70 31 -77 73 -73 32 3 34 6 40
50 10 68 33 141 84 268 51 126 54 145 25 160 -42 22 -55 5 -106 -136 -63 -178
-66 -181 -93 -118 -12 27 -36 63 -53 81 -24 25 -33 45 -39 89 -4 31 -14 63
-22 71 -22 23 -81 28 -100 8z"/>
<path d="M1008 1279 c-70 -63 -87 -102 -50 -111 29 -8 142 99 145 137 3 47
-22 40 -95 -26z"/>
<path d="M1380 1145 c-18 -11 -42 -13 -86 -9 -37 4 -70 2 -81 -5 -28 -14 -50
-65 -79 -177 -28 -113 -23 -137 29 -132 30 3 32 6 39 53 12 80 39 173 53 185
8 7 21 7 43 -1 62 -21 147 23 140 73 -4 28 -25 33 -58 13z"/>
<path d="M782 1108 c-6 -6 -12 -18 -12 -24 0 -26 68 -161 99 -197 l33 -37 -30
-62 c-16 -35 -40 -91 -52 -126 -29 -80 -20 -94 42 -61 34 20 44 31 49 59 3 19
45 113 93 209 48 96 85 181 84 189 -9 44 -88 35 -88 -9 0 -26 -46 -109 -60
-109 -15 0 -41 45 -65 113 -20 55 -26 62 -51 65 -16 2 -35 -3 -42 -10z"/>
<path d="M1102 587 c-6 -7 -20 -34 -32 -61 -18 -43 -23 -47 -45 -42 -14 4 -25
2 -25 -4 0 -5 11 -10 25 -10 29 0 30 -4 10 -60 -8 -23 -15 -52 -14 -64 0 -11
9 5 19 37 10 32 22 66 26 75 4 9 9 26 11 37 7 36 38 90 51 88 6 -2 12 2 12 7
0 14 -26 12 -38 -3z"/>
<path d="M660 539 c-11 -24 -20 -57 -20 -73 0 -23 3 -27 18 -21 9 4 29 7 44 6
15 -1 29 3 33 9 3 6 -3 10 -16 10 -18 0 -19 2 -9 15 7 8 8 15 2 15 -5 0 -15
-7 -22 -15 -7 -8 -19 -15 -26 -15 -11 0 -10 11 6 52 24 64 17 77 -10 17z"/>
<path d="M1596 559 c-4 -15 -17 -31 -29 -37 -12 -6 -16 -11 -9 -11 20 -1 14
-29 -10 -45 -27 -19 -56 -3 -37 20 9 11 8 14 -4 14 -9 0 -19 -5 -22 -10 -4 -6
-11 -8 -16 -4 -13 7 -49 -24 -49 -43 0 -20 27 -15 44 8 15 22 41 17 32 -7 -7
-17 17 -18 47 -3 16 9 22 9 25 0 4 -12 31 -15 56 -5 28 11 17 24 -14 18 -34
-7 -36 -4 -15 36 11 21 24 30 55 35 55 9 60 24 6 18 -41 -5 -45 -3 -48 18 l-4
24 -8 -26z m-139 -96 c-4 -3 -7 0 -7 7 0 7 3 10 7 7 3 -4 3 -10 0 -14z"/>
<path d="M1335 548 c-16 -58 -28 -78 -47 -78 -15 0 -18 4 -12 22 6 22 6 22
-19 5 -14 -9 -32 -14 -40 -11 -8 3 -18 0 -22 -6 -5 -8 -11 -6 -20 7 -11 15
-17 15 -39 5 -29 -13 -33 -33 -11 -52 11 -9 21 -8 47 4 22 11 34 13 36 6 3 -7
11 -5 23 6 23 21 58 12 39 -11 -18 -22 8 -20 32 2 17 15 18 15 18 0 0 -19 8
-21 30 -7 9 5 19 5 28 -2 9 -8 16 -8 24 0 9 9 8 12 -5 12 -10 0 -14 5 -11 15
8 20 -1 19 -33 -2 -26 -17 -26 -17 -20 7 12 53 19 100 14 100 -3 0 -9 -10 -12
-22z m-165 -62 c0 -2 -7 -7 -16 -10 -8 -3 -12 -2 -9 4 6 10 25 14 25 6z m-13
-32 c-3 -3 -12 -4 -19 -1 -8 3 -5 6 6 6 11 1 17 -2 13 -5z"/>
<path d="M343 523 c-20 -22 -38 -33 -48 -30 -10 5 -15 0 -15 -13 0 -24 13 -26
30 -5 16 19 30 19 30 1 0 -22 17 -28 39 -16 14 7 22 7 26 -1 4 -6 14 -8 22 -5
9 4 21 1 29 -5 9 -7 18 -7 33 0 29 16 31 14 21 -18 -19 -68 -55 -96 -87 -69
-14 11 -16 11 -12 -1 3 -8 13 -19 22 -25 35 -22 84 34 93 107 9 62 -5 73 -57
46 -48 -24 -52 -24 -44 1 3 11 3 20 0 20 -4 0 -18 -9 -32 -20 -38 -30 -45 -25
-27 20 9 23 15 42 13 44 -2 2 -18 -12 -36 -31z"/>
<path d="M83 488 c-35 -27 -63 -54 -63 -60 0 -5 17 4 37 21 37 31 67 39 77 22
3 -5 -1 -12 -10 -15 -9 -4 -14 -9 -11 -13 4 -3 19 2 34 12 18 12 28 14 31 7 5
-17 33 -15 54 5 14 13 18 13 18 2 -2 -43 -49 -129 -71 -129 -4 0 -10 10 -12
23 -4 19 -4 19 -6 -5 -1 -31 10 -41 34 -32 25 10 65 102 65 148 l0 39 -25 -23
c-26 -25 -47 -21 -25 5 17 21 0 18 -29 -4 -20 -15 -29 -17 -49 -8 l-23 11 23
17 c12 10 21 20 18 22 -3 3 -33 -17 -67 -45z"/>
<path d="M867 484 c-21 -28 -45 -32 -43 -7 1 13 -7 18 -31 18 -28 0 -33 -4
-33 -24 0 -23 1 -23 18 -8 24 22 32 21 32 -3 0 -22 20 -26 52 -9 18 10 19 8
13 -13 -11 -34 -33 -76 -45 -83 -6 -4 -18 -1 -27 7 -14 11 -16 11 -11 -2 2 -8
17 -16 32 -18 23 -3 29 2 45 40 39 87 37 154 -2 102z"/>
</g>
</svg>
